<?xml version="1.0" encoding="UTF-8" standalone="no"?>
<!DOCTYPE svg PUBLIC "-//W3C//DTD SVG 1.1//EN"
 "http://www.w3.org/Graphics/SVG/1.1/DTD/svg11.dtd">
<!-- Generated by graphviz version 2.43.0 (0)
 -->
<!-- Title: %3 Pages: 1 -->
<svg width="2795pt" height="548pt"
 viewBox="0.00 0.00 2794.72 548.00" xmlns="http://www.w3.org/2000/svg" xmlns:xlink="http://www.w3.org/1999/xlink">
<g id="graph0" class="graph" transform="scale(1 1) rotate(0) translate(4 544)">
<title>%3</title>
<polygon fill="white" stroke="transparent" points="-4,4 -4,-544 2790.72,-544 2790.72,4 -4,4"/>
<!-- 0 -->
<g id="node1" class="node">
<title>0</title>
<ellipse fill="none" stroke="black" cx="1956.94" cy="-162" rx="48.19" ry="18"/>
<text text-anchor="middle" x="1956.94" y="-158.3" font-family="Times,serif" font-size="14.00">Rename</text>
</g>
<!-- 4 -->
<g id="node9" class="node">
<title>4</title>
<ellipse fill="none" stroke="black" cx="1594.94" cy="-90" rx="27" ry="18"/>
<text text-anchor="middle" x="1594.94" y="-86.3" font-family="Times,serif" font-size="14.00">+</text>
</g>
<!-- 0&#45;&gt;4 -->
<g id="edge7" class="edge">
<title>0&#45;&gt;4</title>
<path fill="none" stroke="black" d="M1915.06,-152.9C1843.34,-139.03 1698.22,-110.97 1630.83,-97.94"/>
<polygon fill="black" stroke="black" points="1631.19,-94.44 1620.71,-95.98 1629.86,-101.32 1631.19,-94.44"/>
</g>
<!-- 7 -->
<g id="node2" class="node">
<title>7</title>
<ellipse fill="none" stroke="black" cx="2037.94" cy="-234" rx="84.49" ry="18"/>
<text text-anchor="middle" x="2037.94" y="-230.3" font-family="Times,serif" font-size="14.00">TargetEncoding</text>
</g>
<!-- 7&#45;&gt;0 -->
<g id="edge1" class="edge">
<title>7&#45;&gt;0</title>
<path fill="none" stroke="black" d="M2018.75,-216.41C2008.03,-207.15 1994.53,-195.48 1982.88,-185.41"/>
<polygon fill="black" stroke="black" points="1985.02,-182.64 1975.17,-178.75 1980.45,-187.94 1985.02,-182.64"/>
</g>
<!-- 1 -->
<g id="node3" class="node">
<title>1</title>
<ellipse fill="none" stroke="black" cx="66.94" cy="-450" rx="66.89" ry="18"/>
<text text-anchor="middle" x="66.94" y="-446.3" font-family="Times,serif" font-size="14.00">SelectionOp</text>
</g>
<!-- 17 -->
<g id="node8" class="node">
<title>17</title>
<ellipse fill="none" stroke="black" cx="370.94" cy="-378" rx="138.38" ry="18"/>
<text text-anchor="middle" x="370.94" y="-374.3" font-family="Times,serif" font-size="14.00">user_id_brand_cross_maker</text>
</g>
<!-- 1&#45;&gt;17 -->
<g id="edge27" class="edge">
<title>1&#45;&gt;17</title>
<path fill="none" stroke="black" d="M116.12,-437.68C164.79,-426.47 239.93,-409.17 296.03,-396.25"/>
<polygon fill="black" stroke="black" points="296.96,-399.63 305.92,-393.97 295.39,-392.81 296.96,-399.63"/>
</g>
<!-- 1_selector -->
<g id="node4" class="node">
<title>1_selector</title>
<ellipse fill="none" stroke="black" cx="66.94" cy="-522" rx="55.79" ry="18"/>
<text text-anchor="middle" x="66.94" y="-518.3" font-family="Times,serif" font-size="14.00">[&#39;user_id&#39;]</text>
</g>
<!-- 1_selector&#45;&gt;1 -->
<g id="edge2" class="edge">
<title>1_selector&#45;&gt;1</title>
<path fill="none" stroke="black" d="M66.94,-503.7C66.94,-495.98 66.94,-486.71 66.94,-478.11"/>
<polygon fill="black" stroke="black" points="70.44,-478.1 66.94,-468.1 63.44,-478.1 70.44,-478.1"/>
</g>
<!-- 2 -->
<g id="node5" class="node">
<title>2</title>
<ellipse fill="none" stroke="black" cx="218.94" cy="-450" rx="66.89" ry="18"/>
<text text-anchor="middle" x="218.94" y="-446.3" font-family="Times,serif" font-size="14.00">SelectionOp</text>
</g>
<!-- 2&#45;&gt;17 -->
<g id="edge28" class="edge">
<title>2&#45;&gt;17</title>
<path fill="none" stroke="black" d="M251.18,-434.15C272.95,-424.13 301.99,-410.75 326.02,-399.69"/>
<polygon fill="black" stroke="black" points="327.68,-402.78 335.3,-395.41 324.75,-396.42 327.68,-402.78"/>
</g>
<!-- 2_selector -->
<g id="node6" class="node">
<title>2_selector</title>
<ellipse fill="none" stroke="black" cx="204.94" cy="-522" rx="50.09" ry="18"/>
<text text-anchor="middle" x="204.94" y="-518.3" font-family="Times,serif" font-size="14.00">[&#39;brand&#39;]</text>
</g>
<!-- 2_selector&#45;&gt;2 -->
<g id="edge3" class="edge">
<title>2_selector&#45;&gt;2</title>
<path fill="none" stroke="black" d="M208.4,-503.7C209.95,-495.98 211.8,-486.71 213.52,-478.11"/>
<polygon fill="black" stroke="black" points="216.99,-478.6 215.52,-468.1 210.13,-477.22 216.99,-478.6"/>
</g>
<!-- 3 -->
<g id="node7" class="node">
<title>3</title>
<ellipse fill="none" stroke="black" cx="701.94" cy="-306" rx="48.19" ry="18"/>
<text text-anchor="middle" x="701.94" y="-302.3" font-family="Times,serif" font-size="14.00">Rename</text>
</g>
<!-- 5 -->
<g id="node13" class="node">
<title>5</title>
<ellipse fill="none" stroke="black" cx="1070.94" cy="-234" rx="27" ry="18"/>
<text text-anchor="middle" x="1070.94" y="-230.3" font-family="Times,serif" font-size="14.00">+</text>
</g>
<!-- 3&#45;&gt;5 -->
<g id="edge9" class="edge">
<title>3&#45;&gt;5</title>
<path fill="none" stroke="black" d="M743.91,-297.04C817.04,-283.17 966.55,-254.8 1035.12,-241.8"/>
<polygon fill="black" stroke="black" points="1035.85,-245.22 1045.02,-239.92 1034.55,-238.34 1035.85,-245.22"/>
</g>
<!-- 17&#45;&gt;3 -->
<g id="edge4" class="edge">
<title>17&#45;&gt;3</title>
<path fill="none" stroke="black" d="M440.33,-362.33C503.15,-349.04 594.24,-329.78 650.69,-317.84"/>
<polygon fill="black" stroke="black" points="651.76,-321.19 660.82,-315.7 650.31,-314.34 651.76,-321.19"/>
</g>
<!-- 20 -->
<g id="node34" class="node">
<title>20</title>
<ellipse fill="none" stroke="black" cx="1594.94" cy="-18" rx="62.29" ry="18"/>
<text text-anchor="middle" x="1594.94" y="-14.3" font-family="Times,serif" font-size="14.00">output cols</text>
</g>
<!-- 4&#45;&gt;20 -->
<g id="edge33" class="edge">
<title>4&#45;&gt;20</title>
<path fill="none" stroke="black" d="M1594.94,-71.7C1594.94,-63.98 1594.94,-54.71 1594.94,-46.11"/>
<polygon fill="black" stroke="black" points="1598.44,-46.1 1594.94,-36.1 1591.44,-46.1 1598.44,-46.1"/>
</g>
<!-- 11 -->
<g id="node10" class="node">
<title>11</title>
<ellipse fill="none" stroke="black" cx="1306.94" cy="-162" rx="59.59" ry="18"/>
<text text-anchor="middle" x="1306.94" y="-158.3" font-family="Times,serif" font-size="14.00">Categorify</text>
</g>
<!-- 11&#45;&gt;4 -->
<g id="edge5" class="edge">
<title>11&#45;&gt;4</title>
<path fill="none" stroke="black" d="M1351.94,-150.06C1409.49,-136.08 1507.92,-112.15 1560.1,-99.47"/>
<polygon fill="black" stroke="black" points="1561,-102.85 1569.89,-97.09 1559.35,-96.05 1561,-102.85"/>
</g>
<!-- 19 -->
<g id="node11" class="node">
<title>19</title>
<ellipse fill="none" stroke="black" cx="1523.94" cy="-162" rx="58.49" ry="18"/>
<text text-anchor="middle" x="1523.94" y="-158.3" font-family="Times,serif" font-size="14.00">Normalize</text>
</g>
<!-- 19&#45;&gt;4 -->
<g id="edge6" class="edge">
<title>19&#45;&gt;4</title>
<path fill="none" stroke="black" d="M1540.77,-144.41C1550.41,-134.91 1562.61,-122.88 1572.99,-112.65"/>
<polygon fill="black" stroke="black" points="1575.5,-115.08 1580.17,-105.57 1570.59,-110.1 1575.5,-115.08"/>
</g>
<!-- 13 -->
<g id="node12" class="node">
<title>13</title>
<ellipse fill="none" stroke="black" cx="1666.94" cy="-162" rx="66.89" ry="18"/>
<text text-anchor="middle" x="1666.94" y="-158.3" font-family="Times,serif" font-size="14.00">SelectionOp</text>
</g>
<!-- 13&#45;&gt;4 -->
<g id="edge8" class="edge">
<title>13&#45;&gt;4</title>
<path fill="none" stroke="black" d="M1649.88,-144.41C1640.11,-134.91 1627.74,-122.88 1617.21,-112.65"/>
<polygon fill="black" stroke="black" points="1619.54,-110.03 1609.93,-105.57 1614.66,-115.05 1619.54,-110.03"/>
</g>
<!-- 5&#45;&gt;11 -->
<g id="edge20" class="edge">
<title>5&#45;&gt;11</title>
<path fill="none" stroke="black" d="M1095.31,-225.77C1133.07,-214.57 1206.53,-192.78 1256.17,-178.06"/>
<polygon fill="black" stroke="black" points="1257.17,-181.41 1265.76,-175.21 1255.18,-174.7 1257.17,-181.41"/>
</g>
<!-- 15 -->
<g id="node14" class="node">
<title>15</title>
<ellipse fill="none" stroke="black" cx="1070.94" cy="-306" rx="48.19" ry="18"/>
<text text-anchor="middle" x="1070.94" y="-302.3" font-family="Times,serif" font-size="14.00">Rename</text>
</g>
<!-- 15&#45;&gt;5 -->
<g id="edge10" class="edge">
<title>15&#45;&gt;5</title>
<path fill="none" stroke="black" d="M1070.94,-287.7C1070.94,-279.98 1070.94,-270.71 1070.94,-262.11"/>
<polygon fill="black" stroke="black" points="1074.44,-262.1 1070.94,-252.1 1067.44,-262.1 1074.44,-262.1"/>
</g>
<!-- 6 -->
<g id="node15" class="node">
<title>6</title>
<ellipse fill="none" stroke="black" cx="1961.94" cy="-306" rx="66.89" ry="18"/>
<text text-anchor="middle" x="1961.94" y="-302.3" font-family="Times,serif" font-size="14.00">SelectionOp</text>
</g>
<!-- 6&#45;&gt;7 -->
<g id="edge12" class="edge">
<title>6&#45;&gt;7</title>
<path fill="none" stroke="black" d="M1979.95,-288.41C1989.63,-279.5 2001.73,-268.36 2012.37,-258.56"/>
<polygon fill="black" stroke="black" points="2014.81,-261.06 2019.8,-251.71 2010.07,-255.91 2014.81,-261.06"/>
</g>
<!-- 6_selector -->
<g id="node16" class="node">
<title>6_selector</title>
<ellipse fill="none" stroke="black" cx="1946.94" cy="-378" rx="293.55" ry="18"/>
<text text-anchor="middle" x="1946.94" y="-374.3" font-family="Times,serif" font-size="14.00">[&#39;brand&#39;, &#39;user_id&#39;, &#39;product_id&#39;, &#39;cat_2&#39;, &#39;ts_weekday&#39;, &#39;ts_day&#39;]</text>
</g>
<!-- 6_selector&#45;&gt;6 -->
<g id="edge11" class="edge">
<title>6_selector&#45;&gt;6</title>
<path fill="none" stroke="black" d="M1950.65,-359.7C1952.3,-351.98 1954.29,-342.71 1956.13,-334.11"/>
<polygon fill="black" stroke="black" points="1959.61,-334.62 1958.28,-324.1 1952.76,-333.15 1959.61,-334.62"/>
</g>
<!-- 8 -->
<g id="node17" class="node">
<title>8</title>
<ellipse fill="none" stroke="black" cx="2113.94" cy="-306" rx="66.89" ry="18"/>
<text text-anchor="middle" x="2113.94" y="-302.3" font-family="Times,serif" font-size="14.00">SelectionOp</text>
</g>
<!-- 8&#45;&gt;7 -->
<g id="edge13" class="edge">
<title>8&#45;&gt;7</title>
<path fill="none" stroke="black" d="M2095.93,-288.41C2086.25,-279.5 2074.16,-268.36 2063.52,-258.56"/>
<polygon fill="black" stroke="black" points="2065.82,-255.91 2056.09,-251.71 2061.07,-261.06 2065.82,-255.91"/>
</g>
<!-- 7_selector -->
<g id="node18" class="node">
<title>7_selector</title>
<ellipse fill="none" stroke="black" cx="2492.94" cy="-306" rx="293.55" ry="18"/>
<text text-anchor="middle" x="2492.94" y="-302.3" font-family="Times,serif" font-size="14.00">[&#39;brand&#39;, &#39;user_id&#39;, &#39;product_id&#39;, &#39;cat_2&#39;, &#39;ts_weekday&#39;, &#39;ts_day&#39;]</text>
</g>
<!-- 7_selector&#45;&gt;7 -->
<g id="edge14" class="edge">
<title>7_selector&#45;&gt;7</title>
<path fill="none" stroke="black" d="M2389.7,-289.12C2305.89,-276.22 2189.62,-258.34 2114.09,-246.72"/>
<polygon fill="black" stroke="black" points="2114.59,-243.25 2104.17,-245.19 2113.52,-250.17 2114.59,-243.25"/>
</g>
<!-- 8_selector -->
<g id="node19" class="node">
<title>8_selector</title>
<ellipse fill="none" stroke="black" cx="2309.94" cy="-378" rx="51.19" ry="18"/>
<text text-anchor="middle" x="2309.94" y="-374.3" font-family="Times,serif" font-size="14.00">[&#39;target&#39;]</text>
</g>
<!-- 8_selector&#45;&gt;8 -->
<g id="edge15" class="edge">
<title>8_selector&#45;&gt;8</title>
<path fill="none" stroke="black" d="M2275.35,-364.65C2243.91,-353.42 2197.21,-336.74 2162.12,-324.21"/>
<polygon fill="black" stroke="black" points="2163.15,-320.86 2152.55,-320.79 2160.79,-327.45 2163.15,-320.86"/>
</g>
<!-- 9 -->
<g id="node20" class="node">
<title>9</title>
<ellipse fill="none" stroke="black" cx="994.94" cy="-450" rx="66.89" ry="18"/>
<text text-anchor="middle" x="994.94" y="-446.3" font-family="Times,serif" font-size="14.00">SelectionOp</text>
</g>
<!-- 10 -->
<g id="node22" class="node">
<title>10</title>
<ellipse fill="none" stroke="black" cx="1070.94" cy="-378" rx="106.68" ry="18"/>
<text text-anchor="middle" x="1070.94" y="-374.3" font-family="Times,serif" font-size="14.00">user_id_cross_maker</text>
</g>
<!-- 9&#45;&gt;10 -->
<g id="edge17" class="edge">
<title>9&#45;&gt;10</title>
<path fill="none" stroke="black" d="M1012.95,-432.41C1022.56,-423.56 1034.55,-412.52 1045.13,-402.77"/>
<polygon fill="black" stroke="black" points="1047.55,-405.31 1052.53,-395.96 1042.81,-400.16 1047.55,-405.31"/>
</g>
<!-- 9_selector -->
<g id="node21" class="node">
<title>9_selector</title>
<ellipse fill="none" stroke="black" cx="975.94" cy="-522" rx="211.76" ry="18"/>
<text text-anchor="middle" x="975.94" y="-518.3" font-family="Times,serif" font-size="14.00">[&#39;product_id&#39;, &#39;brand&#39;, &#39;ts_hour&#39;, &#39;ts_minute&#39;]</text>
</g>
<!-- 9_selector&#45;&gt;9 -->
<g id="edge16" class="edge">
<title>9_selector&#45;&gt;9</title>
<path fill="none" stroke="black" d="M980.64,-503.7C982.76,-495.9 985.31,-486.51 987.66,-477.83"/>
<polygon fill="black" stroke="black" points="991.06,-478.67 990.3,-468.1 984.3,-476.84 991.06,-478.67"/>
</g>
<!-- 10&#45;&gt;15 -->
<g id="edge24" class="edge">
<title>10&#45;&gt;15</title>
<path fill="none" stroke="black" d="M1070.94,-359.7C1070.94,-351.98 1070.94,-342.71 1070.94,-334.11"/>
<polygon fill="black" stroke="black" points="1074.44,-334.1 1070.94,-324.1 1067.44,-334.1 1074.44,-334.1"/>
</g>
<!-- 12 -->
<g id="node23" class="node">
<title>12</title>
<ellipse fill="none" stroke="black" cx="1146.94" cy="-450" rx="66.89" ry="18"/>
<text text-anchor="middle" x="1146.94" y="-446.3" font-family="Times,serif" font-size="14.00">SelectionOp</text>
</g>
<!-- 12&#45;&gt;10 -->
<g id="edge18" class="edge">
<title>12&#45;&gt;10</title>
<path fill="none" stroke="black" d="M1128.93,-432.41C1119.33,-423.56 1107.33,-412.52 1096.75,-402.77"/>
<polygon fill="black" stroke="black" points="1099.08,-400.16 1089.35,-395.96 1094.34,-405.31 1099.08,-400.16"/>
</g>
<!-- 10_selector -->
<g id="node24" class="node">
<title>10_selector</title>
<ellipse fill="none" stroke="black" cx="1443.94" cy="-450" rx="211.76" ry="18"/>
<text text-anchor="middle" x="1443.94" y="-446.3" font-family="Times,serif" font-size="14.00">[&#39;product_id&#39;, &#39;brand&#39;, &#39;ts_hour&#39;, &#39;ts_minute&#39;]</text>
</g>
<!-- 10_selector&#45;&gt;10 -->
<g id="edge19" class="edge">
<title>10_selector&#45;&gt;10</title>
<path fill="none" stroke="black" d="M1360.7,-433.38C1297.55,-421.53 1211.33,-405.35 1149.39,-393.72"/>
<polygon fill="black" stroke="black" points="1149.75,-390.23 1139.28,-391.82 1148.46,-397.11 1149.75,-390.23"/>
</g>
<!-- 12_selector -->
<g id="node25" class="node">
<title>12_selector</title>
<ellipse fill="none" stroke="black" cx="1261.94" cy="-522" rx="55.79" ry="18"/>
<text text-anchor="middle" x="1261.94" y="-518.3" font-family="Times,serif" font-size="14.00">[&#39;user_id&#39;]</text>
</g>
<!-- 12_selector&#45;&gt;12 -->
<g id="edge21" class="edge">
<title>12_selector&#45;&gt;12</title>
<path fill="none" stroke="black" d="M1236.99,-505.81C1220.79,-495.95 1199.45,-482.96 1181.61,-472.1"/>
<polygon fill="black" stroke="black" points="1183.01,-468.85 1172.64,-466.64 1179.37,-474.83 1183.01,-468.85"/>
</g>
<!-- 13_selector -->
<g id="node26" class="node">
<title>13_selector</title>
<ellipse fill="none" stroke="black" cx="1666.94" cy="-234" rx="51.19" ry="18"/>
<text text-anchor="middle" x="1666.94" y="-230.3" font-family="Times,serif" font-size="14.00">[&#39;target&#39;]</text>
</g>
<!-- 13_selector&#45;&gt;13 -->
<g id="edge22" class="edge">
<title>13_selector&#45;&gt;13</title>
<path fill="none" stroke="black" d="M1666.94,-215.7C1666.94,-207.98 1666.94,-198.71 1666.94,-190.11"/>
<polygon fill="black" stroke="black" points="1670.44,-190.1 1666.94,-180.1 1663.44,-190.1 1670.44,-190.1"/>
</g>
<!-- 14 -->
<g id="node27" class="node">
<title>14</title>
<ellipse fill="none" stroke="black" cx="1383.94" cy="-306" rx="66.89" ry="18"/>
<text text-anchor="middle" x="1383.94" y="-302.3" font-family="Times,serif" font-size="14.00">SelectionOp</text>
</g>
<!-- 18 -->
<g id="node32" class="node">
<title>18</title>
<ellipse fill="none" stroke="black" cx="1523.94" cy="-234" rx="62.29" ry="18"/>
<text text-anchor="middle" x="1523.94" y="-230.3" font-family="Times,serif" font-size="14.00">FillMissing</text>
</g>
<!-- 14&#45;&gt;18 -->
<g id="edge30" class="edge">
<title>14&#45;&gt;18</title>
<path fill="none" stroke="black" d="M1414.32,-289.81C1435.01,-279.47 1462.58,-265.68 1484.9,-254.52"/>
<polygon fill="black" stroke="black" points="1486.73,-257.52 1494.11,-249.92 1483.6,-251.26 1486.73,-257.52"/>
</g>
<!-- 14_selector -->
<g id="node28" class="node">
<title>14_selector</title>
<ellipse fill="none" stroke="black" cx="1399.94" cy="-378" rx="204.16" ry="18"/>
<text text-anchor="middle" x="1399.94" y="-374.3" font-family="Times,serif" font-size="14.00">[&#39;price&#39;, &#39;ts_weekday&#39;, &#39;ts_day&#39;, &#39;ts_month&#39;]</text>
</g>
<!-- 14_selector&#45;&gt;14 -->
<g id="edge23" class="edge">
<title>14_selector&#45;&gt;14</title>
<path fill="none" stroke="black" d="M1395.99,-359.7C1394.23,-351.98 1392.11,-342.71 1390.14,-334.11"/>
<polygon fill="black" stroke="black" points="1393.49,-333.07 1387.85,-324.1 1386.67,-334.63 1393.49,-333.07"/>
</g>
<!-- 16 -->
<g id="node29" class="node">
<title>16</title>
<ellipse fill="none" stroke="black" cx="370.94" cy="-450" rx="66.89" ry="18"/>
<text text-anchor="middle" x="370.94" y="-446.3" font-family="Times,serif" font-size="14.00">SelectionOp</text>
</g>
<!-- 16&#45;&gt;17 -->
<g id="edge26" class="edge">
<title>16&#45;&gt;17</title>
<path fill="none" stroke="black" d="M370.94,-431.7C370.94,-423.98 370.94,-414.71 370.94,-406.11"/>
<polygon fill="black" stroke="black" points="374.44,-406.1 370.94,-396.1 367.44,-406.1 374.44,-406.1"/>
</g>
<!-- 16_selector -->
<g id="node30" class="node">
<title>16_selector</title>
<ellipse fill="none" stroke="black" cx="499.94" cy="-522" rx="226.66" ry="18"/>
<text text-anchor="middle" x="499.94" y="-518.3" font-family="Times,serif" font-size="14.00">[&#39;ts_hour&#39;, &#39;ts_weekday&#39;, &#39;cat_0&#39;, &#39;cat_1&#39;, &#39;cat_2&#39;]</text>
</g>
<!-- 16_selector&#45;&gt;16 -->
<g id="edge25" class="edge">
<title>16_selector&#45;&gt;16</title>
<path fill="none" stroke="black" d="M468.72,-504.05C450.44,-494.13 427.24,-481.55 408.03,-471.13"/>
<polygon fill="black" stroke="black" points="409.7,-468.05 399.24,-466.36 406.36,-474.2 409.7,-468.05"/>
</g>
<!-- 17_selector -->
<g id="node31" class="node">
<title>17_selector</title>
<ellipse fill="none" stroke="black" cx="682.94" cy="-450" rx="226.66" ry="18"/>
<text text-anchor="middle" x="682.94" y="-446.3" font-family="Times,serif" font-size="14.00">[&#39;ts_hour&#39;, &#39;ts_weekday&#39;, &#39;cat_0&#39;, &#39;cat_1&#39;, &#39;cat_2&#39;]</text>
</g>
<!-- 17_selector&#45;&gt;17 -->
<g id="edge29" class="edge">
<title>17_selector&#45;&gt;17</title>
<path fill="none" stroke="black" d="M610.97,-432.85C561.88,-421.84 496.95,-407.27 447.01,-396.07"/>
<polygon fill="black" stroke="black" points="447.75,-392.65 437.23,-393.87 446.22,-399.48 447.75,-392.65"/>
</g>
<!-- 18&#45;&gt;19 -->
<g id="edge32" class="edge">
<title>18&#45;&gt;19</title>
<path fill="none" stroke="black" d="M1523.94,-215.7C1523.94,-207.98 1523.94,-198.71 1523.94,-190.11"/>
<polygon fill="black" stroke="black" points="1527.44,-190.1 1523.94,-180.1 1520.44,-190.1 1527.44,-190.1"/>
</g>
<!-- 18_selector -->
<g id="node33" class="node">
<title>18_selector</title>
<ellipse fill="none" stroke="black" cx="1672.94" cy="-306" rx="204.16" ry="18"/>
<text text-anchor="middle" x="1672.94" y="-302.3" font-family="Times,serif" font-size="14.00">[&#39;price&#39;, &#39;ts_weekday&#39;, &#39;ts_day&#39;, &#39;ts_month&#39;]</text>
</g>
<!-- 18_selector&#45;&gt;18 -->
<g id="edge31" class="edge">
<title>18_selector&#45;&gt;18</title>
<path fill="none" stroke="black" d="M1637.25,-288.23C1615.31,-277.92 1587.13,-264.69 1564.37,-253.99"/>
<polygon fill="black" stroke="black" points="1565.84,-250.81 1555.3,-249.73 1562.86,-257.15 1565.84,-250.81"/>
</g>
</g>
</svg>
