<?xml version="1.0" encoding="UTF-8" standalone="no"?>
<!DOCTYPE svg PUBLIC "-//W3C//DTD SVG 1.1//EN"
 "http://www.w3.org/Graphics/SVG/1.1/DTD/svg11.dtd">
<!-- Generated by graphviz version 2.43.0 (0)
 -->
<!-- Title: %3 Pages: 1 -->
<svg width="812pt" height="548pt"
 viewBox="0.00 0.00 811.82 548.00" xmlns="http://www.w3.org/2000/svg" xmlns:xlink="http://www.w3.org/1999/xlink">
<g id="graph0" class="graph" transform="scale(1 1) rotate(0) translate(4 544)">
<title>%3</title>
<polygon fill="white" stroke="transparent" points="-4,4 -4,-544 807.82,-544 807.82,4 -4,4"/>
<!-- 0 -->
<g id="node1" class="node">
<title>0</title>
<ellipse fill="none" stroke="black" cx="124.14" cy="-234" rx="124.28" ry="18"/>
<text text-anchor="middle" x="124.14" y="-230.3" font-family="Times,serif" font-size="14.00">[&#39;m&#39;, &#39;o&#39;, &#39;v&#39;, &#39;i&#39;, &#39;e&#39;, &#39;I&#39;, &#39;d&#39;]</text>
</g>
<!-- 6 -->
<g id="node12" class="node">
<title>6</title>
<ellipse fill="none" stroke="black" cx="326.14" cy="-162" rx="48.19" ry="18"/>
<text text-anchor="middle" x="326.14" y="-158.3" font-family="Times,serif" font-size="14.00">Rename</text>
</g>
<!-- 0&#45;&gt;6 -->
<g id="edge10" class="edge">
<title>0&#45;&gt;6</title>
<path fill="none" stroke="black" d="M169.72,-217.2C203.51,-205.5 249.27,-189.64 282.57,-178.1"/>
<polygon fill="black" stroke="black" points="283.74,-181.4 292.04,-174.82 281.45,-174.78 283.74,-181.4"/>
</g>
<!-- 1 -->
<g id="node2" class="node">
<title>1</title>
<ellipse fill="none" stroke="black" cx="368.14" cy="-306" rx="59.59" ry="18"/>
<text text-anchor="middle" x="368.14" y="-302.3" font-family="Times,serif" font-size="14.00">Categorify</text>
</g>
<!-- 1&#45;&gt;0 -->
<g id="edge1" class="edge">
<title>1&#45;&gt;0</title>
<path fill="none" stroke="black" d="M326.47,-293.05C288.26,-282.08 231.11,-265.69 187.29,-253.12"/>
<polygon fill="black" stroke="black" points="188.16,-249.73 177.59,-250.33 186.23,-256.46 188.16,-249.73"/>
</g>
<!-- 7 -->
<g id="node14" class="node">
<title>7</title>
<ellipse fill="none" stroke="black" cx="414.14" cy="-90" rx="27" ry="18"/>
<text text-anchor="middle" x="414.14" y="-86.3" font-family="Times,serif" font-size="14.00">+</text>
</g>
<!-- 1&#45;&gt;7 -->
<g id="edge12" class="edge">
<title>1&#45;&gt;7</title>
<path fill="none" stroke="black" d="M378.76,-287.99C384.55,-277.9 391.3,-264.65 395.14,-252 408.93,-206.5 412.79,-150.96 413.83,-118.43"/>
<polygon fill="black" stroke="black" points="417.33,-118.41 414.08,-108.33 410.33,-118.24 417.33,-118.41"/>
</g>
<!-- 0_selector -->
<g id="node3" class="node">
<title>0_selector</title>
<ellipse fill="none" stroke="black" cx="124.14" cy="-306" rx="59.59" ry="18"/>
<text text-anchor="middle" x="124.14" y="-302.3" font-family="Times,serif" font-size="14.00">[&#39;movieId&#39;]</text>
</g>
<!-- 0_selector&#45;&gt;0 -->
<g id="edge2" class="edge">
<title>0_selector&#45;&gt;0</title>
<path fill="none" stroke="black" d="M124.14,-287.7C124.14,-279.98 124.14,-270.71 124.14,-262.11"/>
<polygon fill="black" stroke="black" points="127.64,-262.1 124.14,-252.1 120.64,-262.1 127.64,-262.1"/>
</g>
<!-- 2 -->
<g id="node4" class="node">
<title>2</title>
<ellipse fill="none" stroke="black" cx="368.14" cy="-378" rx="68.49" ry="18"/>
<text text-anchor="middle" x="368.14" y="-374.3" font-family="Times,serif" font-size="14.00">JoinExternal</text>
</g>
<!-- 2&#45;&gt;1 -->
<g id="edge3" class="edge">
<title>2&#45;&gt;1</title>
<path fill="none" stroke="black" d="M368.14,-359.7C368.14,-351.98 368.14,-342.71 368.14,-334.11"/>
<polygon fill="black" stroke="black" points="371.64,-334.1 368.14,-324.1 364.64,-334.1 371.64,-334.1"/>
</g>
<!-- 3 -->
<g id="node5" class="node">
<title>3</title>
<ellipse fill="none" stroke="black" cx="276.14" cy="-450" rx="66.89" ry="18"/>
<text text-anchor="middle" x="276.14" y="-446.3" font-family="Times,serif" font-size="14.00">SelectionOp</text>
</g>
<!-- 3&#45;&gt;2 -->
<g id="edge4" class="edge">
<title>3&#45;&gt;2</title>
<path fill="none" stroke="black" d="M297.48,-432.76C309.79,-423.4 325.44,-411.49 338.88,-401.26"/>
<polygon fill="black" stroke="black" points="341.08,-403.99 346.92,-395.15 336.84,-398.42 341.08,-403.99"/>
</g>
<!-- 2_selector -->
<g id="node6" class="node">
<title>2_selector</title>
<ellipse fill="none" stroke="black" cx="461.14" cy="-450" rx="100.18" ry="18"/>
<text text-anchor="middle" x="461.14" y="-446.3" font-family="Times,serif" font-size="14.00">[&#39;userId&#39;, &#39;movieId&#39;]</text>
</g>
<!-- 2_selector&#45;&gt;2 -->
<g id="edge5" class="edge">
<title>2_selector&#45;&gt;2</title>
<path fill="none" stroke="black" d="M439.1,-432.41C426.73,-423.1 411.14,-411.37 397.72,-401.27"/>
<polygon fill="black" stroke="black" points="399.79,-398.45 389.7,-395.23 395.58,-404.04 399.79,-398.45"/>
</g>
<!-- 3_selector -->
<g id="node7" class="node">
<title>3_selector</title>
<ellipse fill="none" stroke="black" cx="276.14" cy="-522" rx="100.18" ry="18"/>
<text text-anchor="middle" x="276.14" y="-518.3" font-family="Times,serif" font-size="14.00">[&#39;userId&#39;, &#39;movieId&#39;]</text>
</g>
<!-- 3_selector&#45;&gt;3 -->
<g id="edge6" class="edge">
<title>3_selector&#45;&gt;3</title>
<path fill="none" stroke="black" d="M276.14,-503.7C276.14,-495.98 276.14,-486.71 276.14,-478.11"/>
<polygon fill="black" stroke="black" points="279.64,-478.1 276.14,-468.1 272.64,-478.1 279.64,-478.1"/>
</g>
<!-- 4 -->
<g id="node8" class="node">
<title>4</title>
<ellipse fill="none" stroke="black" cx="555.14" cy="-234" rx="66.89" ry="18"/>
<text text-anchor="middle" x="555.14" y="-230.3" font-family="Times,serif" font-size="14.00">SelectionOp</text>
</g>
<!-- 5 -->
<g id="node10" class="node">
<title>5</title>
<ellipse fill="none" stroke="black" cx="623.14" cy="-162" rx="180.87" ry="18"/>
<text text-anchor="middle" x="623.14" y="-158.3" font-family="Times,serif" font-size="14.00">(lambda col: (col &gt; 3).astype(&quot;int8&quot;))</text>
</g>
<!-- 4&#45;&gt;5 -->
<g id="edge8" class="edge">
<title>4&#45;&gt;5</title>
<path fill="none" stroke="black" d="M571.25,-216.41C579.68,-207.73 590.16,-196.95 599.49,-187.34"/>
<polygon fill="black" stroke="black" points="602.21,-189.57 606.67,-179.96 597.19,-184.69 602.21,-189.57"/>
</g>
<!-- 4_selector -->
<g id="node9" class="node">
<title>4_selector</title>
<ellipse fill="none" stroke="black" cx="555.14" cy="-306" rx="50.89" ry="18"/>
<text text-anchor="middle" x="555.14" y="-302.3" font-family="Times,serif" font-size="14.00">[&#39;rating&#39;]</text>
</g>
<!-- 4_selector&#45;&gt;4 -->
<g id="edge7" class="edge">
<title>4_selector&#45;&gt;4</title>
<path fill="none" stroke="black" d="M555.14,-287.7C555.14,-279.98 555.14,-270.71 555.14,-262.11"/>
<polygon fill="black" stroke="black" points="558.64,-262.1 555.14,-252.1 551.64,-262.1 558.64,-262.1"/>
</g>
<!-- 5&#45;&gt;7 -->
<g id="edge13" class="edge">
<title>5&#45;&gt;7</title>
<path fill="none" stroke="black" d="M574.14,-144.59C535.04,-131.49 481.35,-113.51 447.2,-102.07"/>
<polygon fill="black" stroke="black" points="448.28,-98.74 437.69,-98.89 446.06,-105.38 448.28,-98.74"/>
</g>
<!-- 5_selector -->
<g id="node11" class="node">
<title>5_selector</title>
<ellipse fill="none" stroke="black" cx="691.14" cy="-234" rx="50.89" ry="18"/>
<text text-anchor="middle" x="691.14" y="-230.3" font-family="Times,serif" font-size="14.00">[&#39;rating&#39;]</text>
</g>
<!-- 5_selector&#45;&gt;5 -->
<g id="edge9" class="edge">
<title>5_selector&#45;&gt;5</title>
<path fill="none" stroke="black" d="M675.37,-216.76C666.95,-208.1 656.41,-197.25 647.01,-187.57"/>
<polygon fill="black" stroke="black" points="649.25,-184.86 639.77,-180.12 644.23,-189.74 649.25,-184.86"/>
</g>
<!-- 6&#45;&gt;7 -->
<g id="edge14" class="edge">
<title>6&#45;&gt;7</title>
<path fill="none" stroke="black" d="M345.67,-145.46C358.5,-135.26 375.4,-121.81 389.2,-110.84"/>
<polygon fill="black" stroke="black" points="391.68,-113.33 397.33,-104.37 387.33,-107.86 391.68,-113.33"/>
</g>
<!-- 6_selector -->
<g id="node13" class="node">
<title>6_selector</title>
<ellipse fill="none" stroke="black" cx="326.14" cy="-234" rx="59.59" ry="18"/>
<text text-anchor="middle" x="326.14" y="-230.3" font-family="Times,serif" font-size="14.00">[&#39;movieId&#39;]</text>
</g>
<!-- 6_selector&#45;&gt;6 -->
<g id="edge11" class="edge">
<title>6_selector&#45;&gt;6</title>
<path fill="none" stroke="black" d="M326.14,-215.7C326.14,-207.98 326.14,-198.71 326.14,-190.11"/>
<polygon fill="black" stroke="black" points="329.64,-190.1 326.14,-180.1 322.64,-190.1 329.64,-190.1"/>
</g>
<!-- 8 -->
<g id="node15" class="node">
<title>8</title>
<ellipse fill="none" stroke="black" cx="414.14" cy="-18" rx="62.29" ry="18"/>
<text text-anchor="middle" x="414.14" y="-14.3" font-family="Times,serif" font-size="14.00">output cols</text>
</g>
<!-- 7&#45;&gt;8 -->
<g id="edge15" class="edge">
<title>7&#45;&gt;8</title>
<path fill="none" stroke="black" d="M414.14,-71.7C414.14,-63.98 414.14,-54.71 414.14,-46.11"/>
<polygon fill="black" stroke="black" points="417.64,-46.1 414.14,-36.1 410.64,-46.1 417.64,-46.1"/>
</g>
</g>
</svg>
